ffmpeg started on 2025-06-07 at 15:35:01
Report written to "D:\Convert\FFMetrics\reports\ssim_report-6.txt"
Log level: 32
Command line:
ffmpeg -hide_banner -nostdin -i "G:\\\xc0\xed\xe8\xec\xe5\\\xce\xed\xe3\xee\xe8\xed\xe3\xe8\\!_36_\xce\xf1\xe5\xed\xfc_2024\\DreamCast\\\xd1\xee\xe1\xeb\xe0\xe7\xed 2,5-\xec\xe5\xf0\xed\xee\xe3\xee \xe8\xe7\xec\xe5\xf0\xe5\xed\xe8\xff\\[DC] 2-5 Jigen no Ririsa - 17_Telegram_HEVC.mkv" -i "G:\\\xc0\xed\xe8\xec\xe5\\\xce\xed\xe3\xee\xe8\xed\xe3\xe8\\!_36_\xce\xf1\xe5\xed\xfc_2024\\DreamCast\\\xd1\xee\xe1\xeb\xe0\xe7\xed 2,5-\xec\xe5\xf0\xed\xee\xe3\xee \xe8\xe7\xec\xe5\xf0\xe5\xed\xe8\xff\\[DC] 2-5 Jigen no Ririsa - 17_Telegram.mp4" -lavfi "[0:v]settb=AVTB,setpts=PTS-STARTPTS,format=pix_fmts=yuv420p10,fps=24/1,scale=1920:1080:flags=bicubic[main];[1:v]settb=AVTB,setpts=PTS-STARTPTS,format=pix_fmts=yuv420p,fps=24/1,scale=1920:1080:flags=bicubic[ref];[main][ref]ssim=eof_action=endall:stats_file='D\\:/Convert/FFMetrics/logs/ssim_logfile-6.txt'" -f null -
Input #0, matroska,webm, from 'G:\Аниме\Онгоинги\!_36_Осень_2024\DreamCast\Соблазн 2,5-мерного измерения\[DC] 2-5 Jigen no Ririsa - 17_Telegram_HEVC.mkv':
  Metadata:
    COMPATIBLE_BRANDS: isomiso2avc1mp41
    MAJOR_BRAND     : isom
    MINOR_VERSION   : 512
    ENCODER         : Lavf61.7.100
  Duration: 00:24:08.11, start: -0.021000, bitrate: 1240 kb/s
  Stream #0:0: Video: hevc (Main 10), yuv420p10le(tv, bt709, progressive), 1920x1080 [SAR 1:1 DAR 16:9], 24 fps, 24 tbr, 1k tbn (default)
      Metadata:
        HANDLER_NAME    : VideoHandler
        VENDOR_ID       : [0][0][0][0]
        ENCODER         : Lavc61.19.100 libx265
        BPS             : 1042998
        DURATION        : 00:24:07.999666666
        NUMBER_OF_FRAMES: 34752
        NUMBER_OF_BYTES : 188782576
        _STATISTICS_WRITING_APP: mkvpropedit v66.0.0 ('Josie') 64-bit
        _STATISTICS_WRITING_DATE_UTC: 2025-06-04 12:40:18
        _STATISTICS_TAGS: BPS DURATION NUMBER_OF_FRAMES NUMBER_OF_BYTES
  Stream #0:1: Audio: aac (LC), 48000 Hz, stereo, fltp (default)
      Metadata:
        HANDLER_NAME    : SoundHandler
        VENDOR_ID       : [0][0][0][0]
        ENCODER         : Lavc61.19.100 aac
        BPS             : 193211
        DURATION        : 00:24:08.106000000
        NUMBER_OF_FRAMES: 67881
        NUMBER_OF_BYTES : 34973828
        _STATISTICS_WRITING_APP: mkvpropedit v66.0.0 ('Josie') 64-bit
        _STATISTICS_WRITING_DATE_UTC: 2025-06-04 12:40:18
        _STATISTICS_TAGS: BPS DURATION NUMBER_OF_FRAMES NUMBER_OF_BYTES
Input #1, mov,mp4,m4a,3gp,3g2,mj2, from 'G:\Аниме\Онгоинги\!_36_Осень_2024\DreamCast\Соблазн 2,5-мерного измерения\[DC] 2-5 Jigen no Ririsa - 17_Telegram.mp4':
  Metadata:
    major_brand     : isom
    minor_version   : 512
    compatible_brands: isomiso2avc1mp41
    encoder         : Lavf61.1.100
  Duration: 00:24:08.07, start: 0.000000, bitrate: 3861 kb/s
  Stream #1:0[0x1](und): Video: h264 (High) (avc1 / 0x31637661), yuv420p(tv, bt709, progressive), 1920x1080 [SAR 1:1 DAR 16:9], 3713 kb/s, 24 fps, 24 tbr, 12288 tbn (default)
      Metadata:
        handler_name    : VideoHandler
        vendor_id       : [0][0][0][0]
        encoder         : Lavc61.3.100 h264_qsv
  Stream #1:1[0x2](und): Audio: aac (HE-AACv2) (mp4a / 0x6134706D), 48000 Hz, stereo, fltp, 144 kb/s (default)
      Metadata:
        handler_name    : SoundHandler
        vendor_id       : [0][0][0][0]
Stream mapping:
  Stream #0:0 (hevc) -> settb:default
  Stream #1:0 (h264) -> settb:default
  ssim:default -> Stream #0:0 (wrapped_avframe)
  Stream #0:1 -> #0:1 (aac (native) -> pcm_s16le (native))
Output #0, null, to 'pipe:':
  Metadata:
    COMPATIBLE_BRANDS: isomiso2avc1mp41
    MAJOR_BRAND     : isom
    MINOR_VERSION   : 512
    encoder         : Lavf61.7.100
  Stream #0:0: Video: wrapped_avframe, yuv420p10le(tv, bt709, progressive), 1920x1080 [SAR 1:1 DAR 16:9], q=2-31, 200 kb/s, 24 fps, 24 tbn
      Metadata:
        encoder         : Lavc61.19.100 wrapped_avframe
  Stream #0:1: Audio: pcm_s16le, 48000 Hz, stereo, s16, 1536 kb/s (default)
      Metadata:
        HANDLER_NAME    : SoundHandler
        VENDOR_ID       : [0][0][0][0]
        _STATISTICS_TAGS: BPS DURATION NUMBER_OF_FRAMES NUMBER_OF_BYTES
        BPS             : 193211
        DURATION        : 00:24:08.106000000
        NUMBER_OF_FRAMES: 67881
        NUMBER_OF_BYTES : 34973828
        _STATISTICS_WRITING_APP: mkvpropedit v66.0.0 ('Josie') 64-bit
        _STATISTICS_WRITING_DATE_UTC: 2025-06-04 12:40:18
        encoder         : Lavc61.19.100 pcm_s16le
frame=  186 fps=0.0 q=-0.0 size=N/A time=00:00:07.75 bitrate=N/A speed=15.2x    frame=  406 fps=400 q=-0.0 size=N/A time=00:00:16.91 bitrate=N/A speed=16.7x    frame=  636 fps=413 q=-0.0 size=N/A time=00:00:26.50 bitrate=N/A speed=17.2x    frame=  847 fps=411 q=-0.0 size=N/A time=00:00:35.29 bitrate=N/A speed=17.1x    frame= 1070 fps=414 q=-0.0 size=N/A time=00:00:44.58 bitrate=N/A speed=17.2x    frame= 1303 fps=421 q=-0.0 size=N/A time=00:00:54.29 bitrate=N/A speed=17.5x    frame= 1563 fps=431 q=-0.0 size=N/A time=00:01:05.12 bitrate=N/A speed=  18x    frame= 1807 fps=437 q=-0.0 size=N/A time=00:01:15.29 bitrate=N/A speed=18.2x    frame= 2047 fps=441 q=-0.0 size=N/A time=00:01:25.29 bitrate=N/A speed=18.4x    frame= 2294 fps=444 q=-0.0 size=N/A time=00:01:35.58 bitrate=N/A speed=18.5x    frame= 2549 fps=449 q=-0.0 size=N/A time=00:01:46.20 bitrate=N/A speed=18.7x    frame= 2776 fps=448 q=-0.0 size=N/A time=00:01:55.66 bitrate=N/A speed=18.7x    frame= 3015 fps=449 q=-0.0 size=N/A time=00:02:05.62 bitrate=N/A speed=18.7x    frame= 3256 fps=451 q=-0.0 size=N/A time=00:02:15.66 bitrate=N/A speed=18.8x    frame= 3494 fps=451 q=-0.0 size=N/A time=00:02:25.58 bitrate=N/A speed=18.8x    frame= 3725 fps=451 q=-0.0 size=N/A time=00:02:35.20 bitrate=N/A speed=18.8x    frame= 3964 fps=452 q=-0.0 size=N/A time=00:02:45.16 bitrate=N/A speed=18.8x    frame= 4234 fps=456 q=-0.0 size=N/A time=00:02:56.41 bitrate=N/A speed=  19x    frame= 4449 fps=453 q=-0.0 size=N/A time=00:03:05.37 bitrate=N/A speed=18.9x    frame= 4686 fps=454 q=-0.0 size=N/A time=00:03:15.25 bitrate=N/A speed=18.9x    frame= 4924 fps=455 q=-0.0 size=N/A time=00:03:25.16 bitrate=N/A speed=18.9x    frame= 5174 fps=456 q=-0.0 size=N/A time=00:03:35.58 bitrate=N/A speed=  19x    frame= 5400 fps=455 q=-0.0 size=N/A time=00:03:45.00 bitrate=N/A speed=  19x    frame= 5559 fps=449 q=-0.0 size=N/A time=00:03:51.62 bitrate=N/A speed=18.7x    frame= 5738 fps=445 q=-0.0 size=N/A time=00:03:59.08 bitrate=N/A speed=18.5x    frame= 5963 fps=445 q=-0.0 size=N/A time=00:04:08.45 bitrate=N/A speed=18.5x    frame= 6175 fps=443 q=-0.0 size=N/A time=00:04:17.29 bitrate=N/A speed=18.5x    frame= 6382 fps=442 q=-0.0 size=N/A time=00:04:25.91 bitrate=N/A speed=18.4x    frame= 6640 fps=444 q=-0.0 size=N/A time=00:04:36.66 bitrate=N/A speed=18.5x    frame= 6880 fps=445 q=-0.0 size=N/A time=00:04:46.66 bitrate=N/A speed=18.5x    frame= 7135 fps=446 q=-0.0 size=N/A time=00:04:57.29 bitrate=N/A speed=18.6x    frame= 7387 fps=448 q=-0.0 size=N/A time=00:05:07.79 bitrate=N/A speed=18.6x    frame= 7606 fps=447 q=-0.0 size=N/A time=00:05:16.91 bitrate=N/A speed=18.6x    frame= 7857 fps=448 q=-0.0 size=N/A time=00:05:27.37 bitrate=N/A speed=18.7x    frame= 8094 fps=448 q=-0.0 size=N/A time=00:05:37.25 bitrate=N/A speed=18.7x    frame= 8318 fps=448 q=-0.0 size=N/A time=00:05:46.58 bitrate=N/A speed=18.7x    frame= 8554 fps=448 q=-0.0 size=N/A time=00:05:56.41 bitrate=N/A speed=18.7x    frame= 8808 fps=449 q=-0.0 size=N/A time=00:06:07.00 bitrate=N/A speed=18.7x    frame= 9049 fps=450 q=-0.0 size=N/A time=00:06:17.04 bitrate=N/A speed=18.7x    frame= 9285 fps=450 q=-0.0 size=N/A time=00:06:26.87 bitrate=N/A speed=18.8x    frame= 9498 fps=449 q=-0.0 size=N/A time=00:06:35.75 bitrate=N/A speed=18.7x    frame= 9747 fps=450 q=-0.0 size=N/A time=00:06:46.12 bitrate=N/A speed=18.7x    frame= 9966 fps=449 q=-0.0 size=N/A time=00:06:55.25 bitrate=N/A speed=18.7x    frame=10199 fps=449 q=-0.0 size=N/A time=00:07:04.95 bitrate=N/A speed=18.7x    frame=10446 fps=450 q=-0.0 size=N/A time=00:07:15.25 bitrate=N/A speed=18.8x    frame=10684 fps=450 q=-0.0 size=N/A time=00:07:25.16 bitrate=N/A speed=18.8x    frame=10934 fps=451 q=-0.0 size=N/A time=00:07:35.58 bitrate=N/A speed=18.8x    frame=11179 fps=452 q=-0.0 size=N/A time=00:07:45.79 bitrate=N/A speed=18.8x    frame=11423 fps=452 q=-0.0 size=N/A time=00:07:55.95 bitrate=N/A speed=18.8x    frame=11674 fps=453 q=-0.0 size=N/A time=00:08:06.41 bitrate=N/A speed=18.9x    frame=11900 fps=452 q=-0.0 size=N/A time=00:08:15.83 bitrate=N/A speed=18.9x    frame=12112 fps=452 q=-0.0 size=N/A time=00:08:24.66 bitrate=N/A speed=18.8x    frame=12353 fps=452 q=-0.0 size=N/A time=00:08:34.70 bitrate=N/A speed=18.8x    frame=12602 fps=452 q=-0.0 size=N/A time=00:08:45.08 bitrate=N/A speed=18.9x    frame=12827 fps=452 q=-0.0 size=N/A time=00:08:54.45 bitrate=N/A speed=18.8x    frame=13059 fps=452 q=-0.0 size=N/A time=00:09:04.12 bitrate=N/A speed=18.8x    frame=13272 fps=451 q=-0.0 size=N/A time=00:09:13.00 bitrate=N/A speed=18.8x    frame=13517 fps=452 q=-0.0 size=N/A time=00:09:23.20 bitrate=N/A speed=18.8x    frame=13783 fps=453 q=-0.0 size=N/A time=00:09:34.29 bitrate=N/A speed=18.9x    frame=14037 fps=454 q=-0.0 size=N/A time=00:09:44.87 bitrate=N/A speed=18.9x    frame=14310 fps=455 q=-0.0 size=N/A time=00:09:56.25 bitrate=N/A speed=  19x    frame=14566 fps=456 q=-0.0 size=N/A time=00:10:06.91 bitrate=N/A speed=  19x    frame=14831 fps=457 q=-0.0 size=N/A time=00:10:17.95 bitrate=N/A speed=  19x    frame=15119 fps=458 q=-0.0 size=N/A time=00:10:29.95 bitrate=N/A speed=19.1x    frame=15377 fps=459 q=-0.0 size=N/A time=00:10:40.70 bitrate=N/A speed=19.1x    frame=15631 fps=459 q=-0.0 size=N/A time=00:10:51.29 bitrate=N/A speed=19.1x    frame=15871 fps=459 q=-0.0 size=N/A time=00:11:01.29 bitrate=N/A speed=19.1x    frame=16115 fps=460 q=-0.0 size=N/A time=00:11:11.45 bitrate=N/A speed=19.1x    frame=16355 fps=460 q=-0.0 size=N/A time=00:11:21.45 bitrate=N/A speed=19.2x    frame=16606 fps=460 q=-0.0 size=N/A time=00:11:31.91 bitrate=N/A speed=19.2x    frame=16822 fps=459 q=-0.0 size=N/A time=00:11:40.91 bitrate=N/A speed=19.1x    frame=17082 fps=460 q=-0.0 size=N/A time=00:11:51.75 bitrate=N/A speed=19.2x    frame=17332 fps=460 q=-0.0 size=N/A time=00:12:02.16 bitrate=N/A speed=19.2x    frame=17571 fps=460 q=-0.0 size=N/A time=00:12:12.12 bitrate=N/A speed=19.2x    frame=17782 fps=460 q=-0.0 size=N/A time=00:12:20.91 bitrate=N/A speed=19.2x    frame=17988 fps=459 q=-0.0 size=N/A time=00:12:29.50 bitrate=N/A speed=19.1x    frame=18205 fps=458 q=-0.0 size=N/A time=00:12:38.54 bitrate=N/A speed=19.1x    frame=18414 fps=458 q=-0.0 size=N/A time=00:12:47.25 bitrate=N/A speed=19.1x    frame=18683 fps=459 q=-0.0 size=N/A time=00:12:58.45 bitrate=N/A speed=19.1x    frame=18931 fps=459 q=-0.0 size=N/A time=00:13:08.79 bitrate=N/A speed=19.1x    frame=19185 fps=459 q=-0.0 size=N/A time=00:13:19.37 bitrate=N/A speed=19.1x    frame=19427 fps=459 q=-0.0 size=N/A time=00:13:29.45 bitrate=N/A speed=19.1x    frame=19689 fps=460 q=-0.0 size=N/A time=00:13:40.37 bitrate=N/A speed=19.2x    frame=19948 fps=460 q=-0.0 size=N/A time=00:13:51.16 bitrate=N/A speed=19.2x    frame=20180 fps=460 q=-0.0 size=N/A time=00:14:00.83 bitrate=N/A speed=19.2x    frame=20418 fps=460 q=-0.0 size=N/A time=00:14:10.75 bitrate=N/A speed=19.2x    frame=20624 fps=460 q=-0.0 size=N/A time=00:14:19.33 bitrate=N/A speed=19.2x    frame=20865 fps=460 q=-0.0 size=N/A time=00:14:29.37 bitrate=N/A speed=19.2x    frame=21131 fps=460 q=-0.0 size=N/A time=00:14:40.45 bitrate=N/A speed=19.2x    frame=21401 fps=461 q=-0.0 size=N/A time=00:14:51.70 bitrate=N/A speed=19.2x    frame=21649 fps=461 q=-0.0 size=N/A time=00:15:02.04 bitrate=N/A speed=19.2x    frame=21863 fps=461 q=-0.0 size=N/A time=00:15:10.95 bitrate=N/A speed=19.2x    frame=22129 fps=461 q=-0.0 size=N/A time=00:15:22.04 bitrate=N/A speed=19.2x    frame=22348 fps=461 q=-0.0 size=N/A time=00:15:31.16 bitrate=N/A speed=19.2x    frame=22547 fps=460 q=-0.0 size=N/A time=00:15:39.45 bitrate=N/A speed=19.2x    frame=22767 fps=460 q=-0.0 size=N/A time=00:15:48.62 bitrate=N/A speed=19.2x    frame=23037 fps=460 q=-0.0 size=N/A time=00:15:59.87 bitrate=N/A speed=19.2x    frame=23287 fps=461 q=-0.0 size=N/A time=00:16:10.29 bitrate=N/A speed=19.2x    frame=23543 fps=461 q=-0.0 size=N/A time=00:16:20.95 bitrate=N/A speed=19.2x    frame=23773 fps=461 q=-0.0 size=N/A time=00:16:30.54 bitrate=N/A speed=19.2x    frame=23994 fps=461 q=-0.0 size=N/A time=00:16:39.75 bitrate=N/A speed=19.2x    frame=24267 fps=461 q=-0.0 size=N/A time=00:16:51.12 bitrate=N/A speed=19.2x    frame=24443 fps=460 q=-0.0 size=N/A time=00:16:58.45 bitrate=N/A speed=19.2x    frame=24701 fps=461 q=-0.0 size=N/A time=00:17:09.20 bitrate=N/A speed=19.2x    frame=24914 fps=460 q=-0.0 size=N/A time=00:17:18.08 bitrate=N/A speed=19.2x    frame=25131 fps=460 q=-0.0 size=N/A time=00:17:27.12 bitrate=N/A speed=19.2x    frame=25348 fps=459 q=-0.0 size=N/A time=00:17:36.16 bitrate=N/A speed=19.1x    frame=25602 fps=460 q=-0.0 size=N/A time=00:17:46.75 bitrate=N/A speed=19.2x    frame=25861 fps=460 q=-0.0 size=N/A time=00:17:57.54 bitrate=N/A speed=19.2x    frame=26126 fps=461 q=-0.0 size=N/A time=00:18:08.58 bitrate=N/A speed=19.2x    frame=26369 fps=461 q=-0.0 size=N/A time=00:18:18.70 bitrate=N/A speed=19.2x    frame=26614 fps=461 q=-0.0 size=N/A time=00:18:28.91 bitrate=N/A speed=19.2x    frame=26827 fps=460 q=-0.0 size=N/A time=00:18:37.79 bitrate=N/A speed=19.2x    frame=27070 fps=460 q=-0.0 size=N/A time=00:18:47.91 bitrate=N/A speed=19.2x    frame=27283 fps=460 q=-0.0 size=N/A time=00:18:56.79 bitrate=N/A speed=19.2x    frame=27494 fps=460 q=-0.0 size=N/A time=00:19:05.58 bitrate=N/A speed=19.2x    frame=27761 fps=460 q=-0.0 size=N/A time=00:19:16.70 bitrate=N/A speed=19.2x    frame=28008 fps=460 q=-0.0 size=N/A time=00:19:27.00 bitrate=N/A speed=19.2x    frame=28244 fps=460 q=-0.0 size=N/A time=00:19:36.83 bitrate=N/A speed=19.2x    frame=28488 fps=460 q=-0.0 size=N/A time=00:19:47.00 bitrate=N/A speed=19.2x    frame=28708 fps=460 q=-0.0 size=N/A time=00:19:56.16 bitrate=N/A speed=19.2x    frame=28954 fps=460 q=-0.0 size=N/A time=00:20:06.41 bitrate=N/A speed=19.2x    frame=29167 fps=460 q=-0.0 size=N/A time=00:20:15.29 bitrate=N/A speed=19.2x    frame=29390 fps=460 q=-0.0 size=N/A time=00:20:24.58 bitrate=N/A speed=19.2x    frame=29624 fps=460 q=-0.0 size=N/A time=00:20:34.33 bitrate=N/A speed=19.1x    frame=29837 fps=459 q=-0.0 size=N/A time=00:20:43.20 bitrate=N/A speed=19.1x    frame=30068 fps=459 q=-0.0 size=N/A time=00:20:52.83 bitrate=N/A speed=19.1x    frame=30330 fps=459 q=-0.0 size=N/A time=00:21:03.75 bitrate=N/A speed=19.1x    frame=30584 fps=460 q=-0.0 size=N/A time=00:21:14.33 bitrate=N/A speed=19.2x    frame=30827 fps=460 q=-0.0 size=N/A time=00:21:24.45 bitrate=N/A speed=19.2x    frame=31064 fps=460 q=-0.0 size=N/A time=00:21:34.33 bitrate=N/A speed=19.2x    frame=31300 fps=460 q=-0.0 size=N/A time=00:21:44.16 bitrate=N/A speed=19.2x    frame=31538 fps=460 q=-0.0 size=N/A time=00:21:54.08 bitrate=N/A speed=19.2x    frame=31786 fps=460 q=-0.0 size=N/A time=00:22:04.41 bitrate=N/A speed=19.2x    frame=32058 fps=460 q=-0.0 size=N/A time=00:22:15.75 bitrate=N/A speed=19.2x    frame=32311 fps=461 q=-0.0 size=N/A time=00:22:26.29 bitrate=N/A speed=19.2x    frame=32570 fps=461 q=-0.0 size=N/A time=00:22:37.08 bitrate=N/A speed=19.2x    frame=32783 fps=461 q=-0.0 size=N/A time=00:22:45.95 bitrate=N/A speed=19.2x    frame=33029 fps=461 q=-0.0 size=N/A time=00:22:56.20 bitrate=N/A speed=19.2x    frame=33282 fps=461 q=-0.0 size=N/A time=00:23:06.75 bitrate=N/A speed=19.2x    frame=33526 fps=461 q=-0.0 size=N/A time=00:23:16.91 bitrate=N/A speed=19.2x    frame=33759 fps=461 q=-0.0 size=N/A time=00:23:26.62 bitrate=N/A speed=19.2x    frame=33983 fps=461 q=-0.0 size=N/A time=00:23:35.95 bitrate=N/A speed=19.2x    frame=34186 fps=460 q=-0.0 size=N/A time=00:23:44.41 bitrate=N/A speed=19.2x    frame=34418 fps=460 q=-0.0 size=N/A time=00:23:54.08 bitrate=N/A speed=19.2x    frame=34622 fps=460 q=-0.0 size=N/A time=00:24:02.58 bitrate=N/A speed=19.2x    [Parsed_ssim_10 @ 000001ea893ecb00] SSIM Y:0.993108 (21.616779) U:0.993001 (21.549479) V:0.992888 (21.480325) All:0.993054 (21.582507)
[out#0/null @ 000001eafc654a40] video:14932KiB audio:271524KiB subtitle:0KiB other streams:0KiB global headers:0KiB muxing overhead: unknown
frame=34752 fps=460 q=-0.0 Lsize=N/A time=00:24:08.00 bitrate=N/A speed=19.2x    
